<svg width="20" height="20" viewBox="0 0 20 20" fill="none" xmlns="http://www.w3.org/2000/svg">
<path d="M5 4.56641V4.20605C5 3.70215 5.1582 3.28613 5.47461 2.95801C5.79688 2.62988 6.2334 2.46582 6.78418 2.46582C7.34082 2.46582 7.78027 2.62988 8.10254 2.95801C8.4248 3.28613 8.58594 3.70215 8.58594 4.20605V4.56641C8.58594 5.06445 8.4248 5.47754 8.10254 5.80566C7.78613 6.12793 7.34961 6.28906 6.79297 6.28906C6.24219 6.28906 5.80566 6.12793 5.4834 5.80566C5.16113 5.47754 5 5.06445 5 4.56641Z" fill="#898989"/>
<path d="M11.082 4.56641V4.20605C11.082 3.70215 11.2402 3.28613 11.5566 2.95801C11.8789 2.62988 12.3154 2.46582 12.8662 2.46582C13.4229 2.46582 13.8623 2.62988 14.1846 2.95801C14.5068 3.28613 14.668 3.70215 14.668 4.20605V4.56641C14.668 5.06445 14.5068 5.47754 14.1846 5.80566C13.8682 6.12793 13.4316 6.28906 12.875 6.28906C12.3242 6.28906 11.8877 6.12793 11.5654 5.80566C11.2432 5.47754 11.082 5.06445 11.082 4.56641Z" fill="#898989"/>
<path d="M5 10.5664V10.2061C5 9.70215 5.1582 9.28613 5.47461 8.95801C5.79688 8.62988 6.2334 8.46582 6.78418 8.46582C7.34082 8.46582 7.78027 8.62988 8.10254 8.95801C8.4248 9.28613 8.58594 9.70215 8.58594 10.2061V10.5664C8.58594 11.0645 8.4248 11.4775 8.10254 11.8057C7.78613 12.1279 7.34961 12.2891 6.79297 12.2891C6.24219 12.2891 5.80566 12.1279 5.4834 11.8057C5.16113 11.4775 5 11.0645 5 10.5664Z" fill="#898989"/>
<path d="M11.082 10.5664V10.2061C11.082 9.70215 11.2402 9.28613 11.5566 8.95801C11.8789 8.62988 12.3154 8.46582 12.8662 8.46582C13.4229 8.46582 13.8623 8.62988 14.1846 8.95801C14.5068 9.28613 14.668 9.70215 14.668 10.2061V10.5664C14.668 11.0645 14.5068 11.4775 14.1846 11.8057C13.8682 12.1279 13.4316 12.2891 12.875 12.2891C12.3242 12.2891 11.8877 12.1279 11.5654 11.8057C11.2432 11.4775 11.082 11.0645 11.082 10.5664Z" fill="#898989"/>
<path d="M5 16.5664V16.2061C5 15.7021 5.1582 15.2861 5.47461 14.958C5.79688 14.6299 6.2334 14.4658 6.78418 14.4658C7.34082 14.4658 7.78027 14.6299 8.10254 14.958C8.4248 15.2861 8.58594 15.7021 8.58594 16.2061V16.5664C8.58594 17.0645 8.4248 17.4775 8.10254 17.8057C7.78613 18.1279 7.34961 18.2891 6.79297 18.2891C6.24219 18.2891 5.80566 18.1279 5.4834 17.8057C5.16113 17.4775 5 17.0645 5 16.5664Z" fill="#898989"/>
<path d="M11.082 16.5664V16.2061C11.082 15.7021 11.2402 15.2861 11.5566 14.958C11.8789 14.6299 12.3154 14.4658 12.8662 14.4658C13.4229 14.4658 13.8623 14.6299 14.1846 14.958C14.5068 15.2861 14.668 15.7021 14.668 16.2061V16.5664C14.668 17.0645 14.5068 17.4775 14.1846 17.8057C13.8682 18.1279 13.4316 18.2891 12.875 18.2891C12.3242 18.2891 11.8877 18.1279 11.5654 17.8057C11.2432 17.4775 11.082 17.0645 11.082 16.5664Z" fill="#898989"/>
</svg>
