<svg width="20" height="20" viewBox="0 0 20 20" fill="none" xmlns="http://www.w3.org/2000/svg">
<path fill-rule="evenodd" clip-rule="evenodd" d="M14 2H3V18H17V5L14 2ZM4 17V3H13V6.5H16V17H4ZM14 3.5V5.5H16L14 3.5Z" fill="#898989"/>
<path d="M10 8H14V9H10V8Z" fill="#898989"/>
<path d="M10 12H14V13H10V12Z" fill="#898989"/>
<path fill-rule="evenodd" clip-rule="evenodd" d="M10 6.92412L6.82562 10L5 8.23103L5.95372 7.30691L6.82562 8.15175L9.04628 6L10 6.92412Z" fill="#898989"/>
<path fill-rule="evenodd" clip-rule="evenodd" d="M10 10.9241L6.82562 14L5 12.231L5.95372 11.3069L6.82562 12.1518L9.04628 10L10 10.9241Z" fill="#898989"/>
</svg>
