<svg width="18" height="18" viewBox="0 0 18 18" fill="none" xmlns="http://www.w3.org/2000/svg">
<path d="M14.0859 15.9453L14.0859 16.2656C14.0859 16.7135 13.9453 17.0833 13.6641 17.375C13.3776 17.6667 12.9896 17.8125 12.5 17.8125C12.0052 17.8125 11.6146 17.6667 11.3281 17.375C11.0417 17.0833 10.8984 16.7135 10.8984 16.2656L10.8984 15.9453C10.8984 15.5026 11.0417 15.1354 11.3281 14.8437C11.6094 14.5573 11.9974 14.4141 12.4922 14.4141C12.9818 14.4141 13.3698 14.5573 13.6563 14.8437C13.9427 15.1354 14.0859 15.5026 14.0859 15.9453Z" fill="#898989"/>
<path d="M14.0859 9.94531L14.0859 10.2656C14.0859 10.7135 13.9453 11.0833 13.6641 11.375C13.3776 11.6667 12.9896 11.8125 12.5 11.8125C12.0052 11.8125 11.6146 11.6667 11.3281 11.375C11.0417 11.0833 10.8984 10.7135 10.8984 10.2656L10.8984 9.94531C10.8984 9.5026 11.0417 9.13542 11.3281 8.84375C11.6094 8.55729 11.9974 8.41406 12.4922 8.41406C12.9818 8.41406 13.3698 8.55729 13.6563 8.84375C13.9427 9.13542 14.0859 9.5026 14.0859 9.94531Z" fill="#898989"/>
<path d="M8.67969 9.94531L8.67969 10.2656C8.67969 10.7135 8.53906 11.0833 8.25781 11.375C7.97135 11.6667 7.58333 11.8125 7.09375 11.8125C6.59896 11.8125 6.20833 11.6667 5.92188 11.375C5.63542 11.0833 5.49219 10.7135 5.49219 10.2656L5.49219 9.94531C5.49219 9.5026 5.63542 9.13542 5.92188 8.84375C6.20313 8.55729 6.59115 8.41406 7.08594 8.41406C7.57552 8.41406 7.96354 8.55729 8.25 8.84375C8.53646 9.13542 8.67969 9.5026 8.67969 9.94531Z" fill="#898989"/>
<path d="M14.0859 3.94531L14.0859 4.26562C14.0859 4.71354 13.9453 5.08333 13.6641 5.375C13.3776 5.66667 12.9896 5.8125 12.5 5.8125C12.0052 5.8125 11.6146 5.66667 11.3281 5.375C11.0417 5.08333 10.8984 4.71354 10.8984 4.26562L10.8984 3.94531C10.8984 3.5026 11.0417 3.13542 11.3281 2.84375C11.6094 2.55729 11.9974 2.41406 12.4922 2.41406C12.9818 2.41406 13.3698 2.55729 13.6563 2.84375C13.9427 3.13542 14.0859 3.5026 14.0859 3.94531Z" fill="#898989"/>
<path d="M8.67969 3.94531L8.67969 4.26562C8.67969 4.71354 8.53906 5.08333 8.25781 5.375C7.97136 5.66667 7.58333 5.8125 7.09375 5.8125C6.59896 5.8125 6.20833 5.66667 5.92188 5.375C5.63542 5.08333 5.49219 4.71354 5.49219 4.26562L5.49219 3.94531C5.49219 3.5026 5.63542 3.13542 5.92188 2.84375C6.20313 2.55729 6.59115 2.41406 7.08594 2.41406C7.57552 2.41406 7.96354 2.55729 8.25 2.84375C8.53646 3.13542 8.67969 3.5026 8.67969 3.94531Z" fill="#898989"/>
<path d="M3.27344 3.94531L3.27344 4.26562C3.27344 4.71354 3.13281 5.08333 2.85156 5.375C2.56511 5.66667 2.17708 5.8125 1.6875 5.8125C1.19271 5.8125 0.802084 5.66667 0.515626 5.375C0.229168 5.08333 0.0859386 4.71354 0.0859387 4.26562L0.0859387 3.94531C0.0859388 3.5026 0.229168 3.13542 0.515626 2.84375C0.796876 2.55729 1.1849 2.41406 1.67969 2.41406C2.16927 2.41406 2.55729 2.55729 2.84375 2.84375C3.13021 3.13542 3.27344 3.5026 3.27344 3.94531Z" fill="#898989"/>
</svg>
